<?xml version="1.0" encoding="UTF-8"?>
<svg id="Layer_2" data-name="Layer 2" xmlns="http://www.w3.org/2000/svg" viewBox="0 0 108.52 94.68">
  <defs>
    <style>
      .cls-1 {
        fill: #ffe8c4;
      }

      .cls-2 {
        fill: #534741;
      }

      .cls-3 {
        fill: #ffe5bb;
      }

      .cls-4 {
        fill: #695e59;
      }

      .cls-5 {
        fill: #f7931e;
      }

      .cls-6 {
        fill: #fbb03b;
      }
    </style>
  </defs>
  <g>
    <path class="cls-4" d="M65.22,68.5s-.01-.02-.02-.03c0,0-.01,0-.02.02l.03.02Z"/>
    <path class="cls-4" d="M66.65,66.86h0s-.01-.03-.02-.04t.02.04Z"/>
    <path class="cls-4" d="M66.34,67.28s-.02-.02-.03-.04c0,.02.02.03.03.04Z"/>
    <path class="cls-4" d="M65.49,68.55s-.05-.04-.07-.06c.01.04.04.08.07.06Z"/>
    <path class="cls-4" d="M66.41,67.32s-.05-.03-.07-.04c.02.03.05.04.07.04Z"/>
    <path class="cls-4" d="M67.26,66.97c-.06-.09-.11-.18-.15-.25,0,0,0-.01-.01-.02l.16.27Z"/>
    <path class="cls-4" d="M58.41,55.43s.05.06.09.05c-.03-.01-.06-.03-.09-.05Z"/>
    <path class="cls-4" d="M58.34,56.57s-.02-.02-.03-.03c.01.02.03.03.03.03Z"/>
    <path class="cls-4" d="M59.05,55.96s.04,0,.05,0c-.01,0-.03,0-.05,0Z"/>
    <path class="cls-4" d="M61.91,63.1l.04-.03s-.03.02-.04.03Z"/>
    <path class="cls-4" d="M62.49,64.31h0s0,0,0,0Z"/>
    <path class="cls-4" d="M62.5,64.35v-.03s0,.02,0,.03Z"/>
    <path class="cls-4" d="M67.37,67.18c.07.16.33.49.35.49-.2-.21-.32-.43-.46-.7.15.29.22.39.11.21Z"/>
    <path class="cls-4" d="M57.93,60.64c.01.06.03.08.06.1-.02-.03-.03-.06-.05-.1h0Z"/>
    <polygon class="cls-4" points="59.02 61.81 59.01 61.8 59.01 61.81 59.02 61.81"/>
    <path class="cls-4" d="M57.82,60.54s-.03-.01-.05-.01c0,.02.03.02.05.01Z"/>
    <path class="cls-4" d="M65,68.92l-.02.02s.02-.01.02-.02Z"/>
    <path class="cls-4" d="M59.14,61.7l-.12.11s.05.02.08.02c.11,0,.09-.1.04-.13Z"/>
    <path class="cls-4" d="M57.82,60.54c.05.02.09.05.11.09l.07-.06c-.02-.12-.12-.05-.18-.03Z"/>
    <path class="cls-4" d="M58.83,55.37c-.08.04-.2-.15-.24-.04l.17.13c-.08-.03-.19.03-.26.04.16.06.29-.12.5.03.1.04.07.13.04.18.04-.11.16.01.21.06-.07.06-.05.17-.16.2.04.01.06.07.04.1h-.06c.04.08.06-.02.11,0,.01.06-.11.14-.1.24,0-.09-.08-.18-.14-.25-.11.17-.28-.05-.43-.1.06.15.16.21.25.32-.12.13-.41-.03-.43-.07.08.13.25.28.31.35-.22-.1-.29-.09-.46-.18-.13.1.02.13.11.18-.02-.03-.03-.08.01-.08-.02.12.32.11.46.18-.09.09-.14.26-.34.24h.21c.05.11-.11.06-.18.07.14.04.35,0,.41.17-.34-.03-.03.16-.34.15.02.08.19.12.16.21-.18.1-.42-.13-.37-.18,0-.12.14.02.14-.03l-.09-.12c-.07.06-.14.19-.28.18.07.12.15-.1.23.04l-.08.08c.08.13.24-.03.28.14-.15-.11,0,.18-.22.18.28,0,.05.3.28.33l.06-.09-.13.02c-.01-.1-.09-.18-.04-.28.11.08.24-.03.33.06.17.17-.15.05-.15.07l.16.13.12-.09c.05.1.07.25.06.39-.16.22-.16-.02-.31.14.07.07.14.05.12.14.08-.06-.04-.09-.03-.13.18-.05.1.17.26.15-.07.04-.14.04-.21.01.08.16.06.32-.16.4l.22.06c-.06.29-.21-.18-.33.07-.01.1,0,.2.1.23v-.09c.12.06.21.04.3.14-.02.07-.16.05-.04.13-.1.23-.33.1-.53.08-.1.18-.42-.05-.32.06l.05-.03.3.15c.23-.18-.23-.04,0-.13v-.1c.14.02.07.25.21.26-.07,0-.24,0-.26-.1l-.26.09c-.02.06.16.08.04.13-.17.11-.29-.1-.34.12-.03.24.3.19.27.35.06-.02.05-.06.05-.11.1.04.16-.06.24.02-.17.07-.14.23-.12.36-.1-.02-.19.07-.25.04.03.06.07.12.15.13.1-.27.19.22.34,0,.02.2-.14.26-.21.4-.06,0-.15-.21-.2-.02.22.17.26-.08.51.05l.05-.14c.23-.05.09.21.15.23-.05.09-.08-.1-.23,0-.03.12.12.16.05.25-.17-.05-.1,0-.25-.07.05.27-.18.02-.24.24.04.06.17,0,.15.11.16-.09.21-.09.19-.27.25.02-.02.24.15.33,0-.1.04-.04-.01-.14.2-.05.22-.09.43-.03-.07-.1-.3-.11-.27-.28.2-.08.2.17.46.12.15.05.07.26-.01.36.19.12.23.3.5.36-.05.12.23.34.21.55-.11.06-.02.26-.18.17.04,0,.11.17.2.1-.04,0-.02-.03-.03-.07h.15c-.04.11.18.17.11.28-.11.06-.12-.15-.24-.06.24.04.43.36.37.5,0,.08-.19.14-.2.18l.05.12c-.05.03-.12.05-.19.1-.02.08.05.1.1.13-.06.2-.24.16-.39.11l.03-.11c-.1-.05-.1-.16-.24-.05.03.04.1.02.14.03l-.08.08c.09.04.18.18.3.13-.05.14.1.24.03.37.06-.1.14-.02.23-.08v-.13c.07.09.2.2.15.31-.08.01-.11.02-.17.09.09-.1.2.12.29-.06-.06-.04-.09-.08-.1-.15.16-.1.21,0,.33.03.06.06.17.18.26.26-.02.07-.2.16-.05.23.12-.19.32.03.5,0-.04.13.2.11.09.24-.07-.02-.13-.17-.27-.17-.12.04-.3.15-.42.02,0,.21.14.07.22.14l-.04-.06c.06.01.13-.08.15-.02.04.23-.08.32-.17.52.07-.07.18-.03.2,0-.05.18-.25.1-.4.25.13,0,.13.12.21.05.02.06-.04.05-.05.1.11,0,.19.01.22.09-.05.01-.14.04-.14-.05,0,.1-.17.2-.29.21v-.16c-.14-.01.01.15-.11.19-.05-.05,0-.13-.05-.15-.11.09.06.16.1.22.02.12-.12.13-.18.16.28.1.14-.31.4-.22.17,0,.22.18.3.28.12-.17.24-.09.34,0-.06-.15.17-.12,0-.25l.13-.06c.03.08,0,.19.04.27-.04,0-.06.03-.1.02l.16.2-.1.02c.05.15.04.37.13.43-.05-.06.05-.18.12-.13.08.01.18.05.2.12-.13.11,0,.35-.22.28.19.15.17.07.37.2l-.11-.1c.11-.08.35-.1.36-.25.15.08.3-.12.43.02-.02.11-.24.13-.32.05.02.05-.01.14.1.13-.07.1-.22.02-.25.04.05.09.06-.04.14.02.22.06-.12.22.06.3-.03-.03-.03-.11.04-.11.14.18.18.02.32.08-.08.2-.25.32-.17.47l-.06-.07c-.02.12,0,.21.06.25.36.11.72.02,1.05-.11-.04.01-.08.02-.12.03-.01-.07.11-.06.13-.13l.04.09c.05-.13-.09-.15-.01-.28,0,.02.02.03.03.02l-.04-.05c.1.07.24-.18.28.05-.23,0-.11.4-.4.44.16-.03-.02.15-.02.21.08.04.07-.1.15-.04-.02.1-.26.16-.19.24.05-.15.13-.11.2-.21.06.05-.02.1,0,.15.04,0,.08-.06.11-.04l-.05.09c.19.15.09-.14.31-.09.02-.13-.05-.1-.15-.08,0-.28.3-.29.29-.6.16-.05-.05.12.09.19.09.19-.11.21-.16.34l.18.12c-.06.25-.19.17-.24.39.16.02.15-.05.3-.14-.24-.18.1-.16-.04-.39.1.06.07.11.22.1-.09.06,0,.2-.11.21.2-.03.14-.08.33-.11.04-.18-.21-.21,0-.35.05,0,.05.06.02.06.17.05-.05-.21.04-.31.07-.03.1.04.07.08.09-.11.02-.22.09-.26l-.03-.02c.02-.05-.08-.29.06-.32.1-.01.08.09.09.15.07-.07.14-.03.21.02-.01-.03,0-.07.02-.07.13-.08.1.13.16.15.21.05-.08-.31.14-.36h-.26c0-.1-.02-.23-.07-.21.01.13-.06.25-.14.24-.04-.14.2-.2.04-.33.05.02.11-.03.18-.03-.04.17.2,0,.12.19.26-.09.33.02.55-.15,0,.1-.11.38-.26.33l-.03-.08c-.14.14.15.07.15.23.15-.28.48.02.71-.14-.06-.07-.03-.13-.04-.21-.09.04-.07.07-.16,0-.01-.11.05-.09.06-.17,0-.13-.07.02-.12-.04.07-.09.06-.1.09-.21.07.08.08.14.15.23.22-.04.14-.24.32-.26-.1,0,.08.1-.03.1h.06c-.09.21-.36.28-.26.56.12-.06.17-.25.32-.3v.06c.12-.03-.01-.07,0-.13.08-.13.25.21.26-.01h-.14c.05-.14-.03-.01-.08-.2.06-.09.14-.14.24-.19.05-.03.07-.05.1-.08.08,0-.13-.17.2.23-.13-.15-.2-.26-.27-.38,0-.02.01-.02-.02-.01-.06-.12-.08-.17-.1-.22,0,0,.02.03-.08-.13-.05-.09-.03-.04-.04-.05h0s-.01,0-.01,0l-.11-.22s0,0,0,0c0,.01,0-.02.06.1.03.05.22.34.3.52.11.2.27.38.28.39-.12-.14-.22-.28-.31-.44-.12-.23.15.34.45.59-.13-.12-.33-.35-.48-.65-.05-.14-.24-.38-.34-.59-.09-.16-.06-.11-.06-.11h0c.05.09.09.27.13.27.05.09.04.15,0,.17,0-.05-.16-.22-.12-.32-.02.13-.03.01-.07.09,0-.07-.17.06-.22-.14,0,.1.11.3-.02.34.08.13.22.1.18.29l.03-.11c.11.03.02.15.16.17-.04,0-.08.1-.13,0,.13.29-.13.2-.08.42-.05-.08-.09-.08-.16-.03-.01-.08-.07-.15-.03-.22.05.01.07-.03.14.02-.12-.29-.2-.04-.34-.07.02.02.04.05.01.1-.09-.03-.26-.04-.25-.19l-.36.12c-.02-.07.05-.04.07-.07l-.21.03c-.07-.09.05-.11.06-.21l-.15.03v-.1c-.02.07-.19.13-.25-.02-.15.07-.11.39-.34.27-.01-.16.11-.07.15-.18-.05-.05-.16.08-.2-.07-.14.11-.1.38-.16.54-.13.02-.03-.13-.04-.17-.04,0-.07.28-.12.08-.05.12-.08.26.02.3-.07,0-.16.09-.17.15.05-.23-.09-.09-.08-.28-.05-.04-.11-.09-.21.15l.06-.25-.05.02c.01-.15.07-.15.09-.17-.04-.03-.07-.02-.12-.02,0,.05-.03.1-.06.18-.06.1-.06.01-.09.03.02-.06.05-.11.07-.12l-.05.02c.08-.14.07-.15.14-.23l-.04.04c0-.05.07-.11.09-.16v-.04c-.06.07-.07.12-.12.15.06-.14,0-.11.02-.17-.03.04-.06.08-.09.12.01-.04-.17.12-.26.18l-.02-.06s-.03-.08-.02-.13c.14,0,.27-.14.33-.24-.06-.13-.27.04-.4,0,.3-.09.03-.15.19-.22-.11-.18-.32-.35-.42-.61-.04.02-.05.11-.11.09-.08-.08.01-.17.06-.21-.08-.11-.2-.14-.3-.15.05.04.01.06-.07.09-.08-.11.13-.16-.05-.22.14-.09.13.1.28.03-.03-.11-.13-.15-.24-.2.09-.06.05.06.11-.03-.13-.13-.32-.32-.42-.42l.12-.08c-.04-.08-.09-.12-.16-.14.03-.06.08-.04.11,0-.03-.11-.18-.21-.22-.27.08-.02.04.06.11.06-.02-.15-.34-.24-.2-.39.03,0,.03.02.04.03-.06-.21-.21-.36-.3-.59.1-.26-.22,0-.27-.22.36-.1-.06-.29-.02-.4l-.04.04c-.17-.07-.08-.24,0-.34-.02-.16-.08-.39-.26-.52h.08c-.13-.1-.03-.2-.15-.31.03,0,.08.04.1-.02-.02-.65-.37-1.26-.4-1.91-.07-1.24-.06-2.76-.27-3.99,0,0-.38-.17-.83-.34-.45-.17-.99-.35-1.3-.33Z"/>
    <path class="cls-4" d="M64.89,69.15h-.02s.01,0,.02,0Z"/>
    <path class="cls-4" d="M62.43,67.87s.02.02.03.03c0-.01-.01-.03-.03-.03Z"/>
    <path class="cls-4" d="M60.88,65.68l.03.05s-.02-.04-.03-.05Z"/>
    <path class="cls-4" d="M59.11,61.92c-.1.04-.31-.04-.38.08.06.34.43.07.48.41l.08-.2c-.18.05-.31-.06-.35-.19l.13-.07s.08.03.11.05c0-.05-.1-.02-.07-.09Z"/>
    <path class="cls-4" d="M59.18,62.02h0s0-.01,0-.01c0,0,0,0,0,.01Z"/>
  </g>
  <g>
    <path class="cls-4" d="M55.38,74.08s0-.02,0-.04c0,0-.01,0-.02,0v.03Z"/>
    <path class="cls-4" d="M57.1,73.35h0s0-.03,0-.04t0,.04Z"/>
    <path class="cls-4" d="M56.73,73.58s0-.03,0-.05c0,.02,0,.03,0,.05Z"/>
    <path class="cls-4" d="M55.53,74.25s-.01-.05-.02-.08c-.01.04-.01.09.02.08Z"/>
    <path class="cls-4" d="M56.75,73.65s-.01-.05-.02-.07c0,.03,0,.05.02.07Z"/>
    <path class="cls-4" d="M57.37,73.5s0-.1,0-.13c0,0,0-.02,0,0v.13Z"/>
    <path class="cls-4" d="M52.33,62.68s.04.05.08.06c-.03-.01-.05-.03-.08-.06Z"/>
    <path class="cls-4" d="M52.09,63.53s-.01-.02-.03-.03c0,.02.02.03.03.03Z"/>
    <path class="cls-4" d="M52.88,63.23s.04,0,.05,0c-.01,0-.03-.01-.05,0Z"/>
    <path class="cls-4" d="M53.36,69.65h.05s-.04,0-.05,0Z"/>
    <path class="cls-4" d="M53.44,70.62h0s0,0,0,0Z"/>
    <path class="cls-4" d="M53.44,70.65v-.02s0,.01,0,.02Z"/>
    <path class="cls-4" d="M57.37,73.64c0,.1.03.37.03.37-.02-.17-.03-.34-.02-.51,0,.18,0,.27,0,.14Z"/>
    <path class="cls-4" d="M50.68,66.33s0,.07.02.09c0-.03-.01-.05-.02-.09h0Z"/>
    <polygon class="cls-4" points="51.27 67.55 51.26 67.54 51.26 67.55 51.27 67.55"/>
    <path class="cls-4" d="M50.61,66.22s-.03-.02-.04-.03c0,.02.02.02.04.03Z"/>
    <path class="cls-4" d="M55.01,74.34h-.03s.02,0,.03,0Z"/>
    <path class="cls-4" d="M51.42,67.52l-.15.03s.04.03.06.05c.1.04.12-.04.09-.08Z"/>
    <path class="cls-4" d="M50.61,66.22s.07.07.08.1h.08c.02-.1-.1-.09-.16-.1Z"/>
    <path class="cls-4" d="M52.75,62.72c-.09.02-.17-.16-.23-.08l.15.13c-.08-.04-.19-.02-.26-.03.15.08.3-.03.49.13.09.05.05.12.02.15.06-.07.15.04.2.09-.08.03-.07.12-.18.12.04.02.04.06.02.09h-.05c.03.06.06-.02.11.01,0,.05-.13.09-.14.16.01-.07-.04-.16-.09-.22-.13.1-.27-.1-.4-.17.04.12.12.19.19.31-.14.07-.39-.12-.4-.15.05.12.2.27.24.34-.19-.13-.26-.14-.41-.25-.14.04,0,.1.07.16-.01-.03-.02-.06.03-.06-.04.09.29.16.41.25-.11.04-.18.16-.37.1l.2.06c.03.09-.12.01-.19,0,.13.07.34.09.36.24-.32-.11-.06.11-.36.02,0,.07.16.14.11.2-.19.02-.38-.21-.32-.24.02-.09.13.05.14.01l-.07-.11c-.08.03-.18.1-.31.05.04.11.16-.03.21.09l-.09.04c.05.12.24.04.24.18-.12-.13-.04.14-.25.07.27.08-.03.24.19.32l.08-.05-.13-.02c.01-.07-.04-.16.02-.22.08.09.23.04.31.14.13.17-.16,0-.16.01l.12.14.13-.04c.03.09,0,.21-.04.31-.21.12-.15-.06-.33.01.05.07.12.08.08.14.09-.02-.02-.08,0-.11.18.01.05.16.21.19-.07.01-.14-.01-.21-.06.03.14-.03.25-.25.24l.2.11c-.13.19-.15-.2-.33-.06-.04.07-.05.14.02.2l.02-.06c.1.08.18.1.24.2-.04.05-.17-.02-.07.08-.17.14-.34-.04-.52-.12-.14.09-.38-.18-.32-.07h.05s.24.2.24.2c.27-.05-.2-.11.04-.09l.04-.07c.11.06-.02.2.11.25-.07-.02-.23-.08-.21-.16l-.27-.03s.13.11,0,.1c-.19.02-.24-.17-.35-.03-.1.15.22.23.14.34.06,0,.06-.03.08-.06.08.06.17.02.22.1-.18-.01-.21.11-.23.2-.09-.05-.2-.02-.25-.06,0,.05.03.1.1.15.18-.15.1.22.31.13-.05.14-.22.13-.33.19-.05-.02-.06-.2-.17-.09.14.2.26.05.45.22l.09-.08c.23.05.01.18.05.22-.07.04-.04-.1-.21-.08-.07.07.06.16-.04.19-.14-.1-.09-.05-.21-.14-.05.2-.17-.06-.31.07.02.06.16.06.1.13.18,0,.23.02.27-.11.22.11-.1.15.01.29.04-.07.05,0,.04-.1.2.04.24.02.4.15-.03-.1-.23-.2-.14-.3.21.02.12.19.38.27.12.1-.04.21-.15.25.13.16.09.31.31.47-.1.07.07.34-.04.49-.12,0-.13.19-.23.05.04.02.02.17.14.16-.04-.02,0-.03,0-.06l.14.06c-.08.07.09.2-.02.25-.12,0-.05-.16-.2-.14.2.12.24.44.13.52-.04.06-.23.04-.25.06v.12c-.07,0-.14,0-.22,0-.05.05,0,.1.04.14-.14.14-.28.04-.4-.06l.07-.08c-.08-.08-.03-.16-.2-.14.01.05.08.06.12.08l-.1.04c.07.06.09.22.22.22-.11.09,0,.23-.12.32.09-.06.14.03.24.02l.05-.11c.03.09.12.23.02.31-.08-.02-.11-.02-.19.02.12-.05.14.17.29.04-.04-.05-.06-.1-.04-.16.18-.03.2.07.3.13.04.07.09.2.15.29-.04.05-.25.07-.13.17.17-.12.29.11.47.13-.08.09.16.13.02.21-.06-.03-.07-.16-.2-.19-.13,0-.34.05-.41-.1-.06.18.11.1.17.18l-.02-.06c.05.02.15-.03.15.02-.03.2-.17.24-.31.4.09-.04.18.01.19.04-.1.17-.27.03-.45.16.12.04.11.15.19.1.01.06-.04.04-.07.09.07.01.12.02.15.05.02.02.04.04.05.08-.05,0-.13.02-.13-.06,0,0,0,0,0-.02v.02c-.05.1-.21.18-.31.16v-.09s.03-.1.03-.1c-.09-.03-.08.05-.09.11,0,.04-.02.07-.06.08-.01-.02-.02-.04-.02-.06,0-.05.03-.1,0-.12-.06.04-.06.09-.03.13.03.05.08.11.11.15.02.14-.12.14-.19.16.29.15.13-.34.41-.19.18.02.21.21.3.32.1-.17.24-.1.35-.02-.08-.14.16-.12-.03-.24l.13-.06c.02.07.02.17.05.24-.04,0-.06.04-.1.03.06.06.11.11.18.16l-.09.03c.07.12.11.33.2.37-.06-.05.01-.18.09-.16.07,0,.17,0,.2.05-.1.13.07.3-.15.31.2.07.17,0,.36.05-.04-.01-.08-.03-.12-.05.08-.11.3-.2.28-.34.14.02.25-.2.39-.12,0,.1-.19.19-.28.15.03.04.01.12.11.08-.04.1-.19.09-.22.12.06.06.05-.05.13-.03.21-.02-.08.23.09.25-.03-.01-.04-.08.03-.11.14.12.16-.04.3-.01-.06.19-.21.34-.14.45l-.05-.04c-.02.11,0,.17.04.2.31.02.64-.11.93-.1h-.1c0-.08.11-.03.15-.1v.1c.09-.11-.03-.18.07-.27,0,.02.01.03.03.03l-.02-.06c.07.1.28-.07.24.17-.2-.09-.24.33-.47.27.13.02-.06.14-.08.19.04.06.08-.07.12,0-.05.08-.24.08-.22.18.09-.13.13-.07.21-.14.02.06-.05.08-.06.14.03,0,.08-.04.09,0l-.07.07c.06.2.12-.1.24.02.07-.11,0-.11-.06-.12.12-.26.34-.15.48-.42.16.03-.09.08-.02.21-.03.2-.19.13-.29.23l.06.17c-.16.19-.2.08-.34.26.09.06.11,0,.25-.02-.06-.25.14-.1.17-.35.04.09,0,.13.09.18-.09.01-.1.17-.19.13.15.06.14,0,.28.05.12-.13-.03-.27.19-.3.04.02,0,.07-.02.06.09.12.08-.2.19-.25.06,0,.05.08,0,.1.12-.05.13-.17.2-.18v-.03s.09-.28.19-.24c.08.04,0,.11-.01.17.09-.02.11.05.13.12.01-.03.03-.06.05-.05.13,0,0,.16.03.2.11.15.11-.3.28-.24l-.16-.14c.04-.07.1-.19.06-.2-.06.11-.17.19-.22.14.05-.14.24-.07.2-.26.03.04.09.02.13.06-.11.12.13.09-.02.22.22.06.21.17.43.13-.05.08-.26.27-.34.16l.03-.08c-.17.04.06.13-.02.26.24-.17.3.25.53.22,0-.09.04-.12.08-.2-.08,0-.08.03-.1-.08.05-.1.08-.05.12-.12.06-.11-.05-.02-.06-.09.09-.04.09-.06.16-.14,0,.1-.02.16-.02.27.17.08.2-.15.31-.07-.06-.04,0,.13-.06.07l.04.02c-.15.15-.36.08-.43.36.11.01.23-.13.35-.11l-.02.05c.08.03.02-.07.05-.11.11-.08.07.31.17.11l-.08-.06c.1-.1-.02-.03.04-.21.14-.12.33,0,.37-.14-.02-.11-.03-.11-.04-.12.02-.26,0-.23.01-.45h0s.02-.25.02-.25c0,0-.01-.02-.02.06-.02.05,0,.58.01.61-.01-.11-.02-.22-.02-.33,0-.16,0,.22.04.46-.02-.11-.04-.29-.04-.5,0-.1,0-.22.02-.33,0-.06.02-.11.02-.16,0,0,0,.01,0,.01,0,.09-.07.26-.03.29,0,.1-.04.15-.06.14.01-.05,0-.27.05-.34-.05.11-.01,0-.06.05.03-.06-.1-.02-.05-.22-.04.08-.07.3-.15.29-.02.15.07.19-.03.33l.07-.08c.05.08-.05.14.02.22-.02-.02-.09.05-.08-.05-.05.31-.17.12-.23.34,0-.09-.02-.11-.08-.11.03-.08.03-.17.08-.21.03.04.06.01.08.09.07-.3-.1-.13-.17-.22,0,.03,0,.06-.04.09-.04-.06-.14-.15-.05-.28l-.28-.07c.03-.07.05-.01.08-.03l-.15-.07c0-.11.09-.07.14-.15l-.11-.04.05-.08c-.05.05-.19.02-.15-.14-.14,0-.27.28-.37.07.08-.14.12,0,.2-.08,0-.06-.15-.01-.1-.15-.15.02-.27.28-.4.38-.1-.04.05-.12.07-.16-.02-.02-.2.21-.13,0-.1.07-.19.18-.15.26-.05-.03-.16,0-.21.05.15-.18-.02-.11.07-.28-.06-.08-.19-.22-.39-.06l.15-.2-.1-.03c.02-.17.16-.09.21-.08-.1-.09-.19-.12-.29-.19,0,.06-.05.1-.07.17-.09.06-.1-.03-.15-.03.03-.06.06-.1.1-.1l-.09-.02c.09-.13.06-.15.18-.19h-.09c-.05-.08.08-.1.12-.14l-.09-.09c-.09.04-.06.13-.16.11,0-.18-.16-.23-.23-.34-.01.06-.01.11-.02.17-.04-.08-.18.12-.27.19-.04-.07-.12-.12-.13-.21.13-.05.23-.2.26-.32-.09-.1-.24.12-.35.13.25-.18.01-.13.14-.24-.07-.06-.09-.04-.13-.04-.04,0-.07,0-.09-.03-.04.02-.07.06-.12.07-.06,0,.05-.06.11-.09-.03-.01-.13,0-.22.03.03,0,0,.02-.09.05-.04-.03.16-.08.02-.08.16-.05.09.01.24-.04,0-.01-.01-.02-.03-.02-.03,0-.07,0-.11,0,.1-.03.03.01.11-.02-.07.01-.2-.12-.26-.21l.14-.03c-.01-.05-.04-.09-.11-.11.05-.03.09,0,.11.02,0-.07-.1-.16-.11-.21.08,0,.01.04.08.06.03-.09-.24-.23-.05-.29.02.01.03.02.02.03.02-.14-.07-.29-.06-.46.18-.13-.21-.08-.16-.24.36.06.06-.21.14-.27h-.06c-.13-.1.03-.19.14-.22.05-.12.09-.31-.02-.47l.07.04c-.07-.13.06-.17,0-.3.03.01.06.06.1.03.25-.48.17-1.11.36-1.64.37-1.01.79-2.27.79-3.37,0,0-1.35-.9-1.98-1Z"/>
    <path class="cls-4" d="M54.81,74.48h0s0,0,0,0Z"/>
    <path class="cls-4" d="M52.83,72.96s.02.02.03.02c0,0-.01-.02-.03-.02Z"/>
    <path class="cls-4" d="M51.47,71.18l.02.05s0-.04-.02-.05Z"/>
    <path class="cls-4" d="M51.31,67.66c-.11-.01-.27-.15-.38-.1-.08.26.37.22.27.49l.15-.11c-.18-.04-.26-.17-.24-.28h.14s.06.06.08.09c.03-.03-.08-.06-.03-.09Z"/>
    <path class="cls-4" d="M51.33,67.76h.01s0,0,0,0c0,0,0,0,0,0Z"/>
  </g>
  <g>
    <path class="cls-3" d="M33.18,39.09s-5.19-6.09-3.4-9.31,10.75,0,10.75,0c0,0-2.33-10.21,0-10.93s11.46,2.69,11.46,6.99c0,0,7.16-7.18,11.46-7.08s3.22,10.17,3.22,10.17c0,0,11.64-1.47,12,2.82s-4.12,10.57-4.12,10.57c0,0,6.81,4.3,5.73,8.24s-10.21,3.94-10.21,3.94c0,0,5.19,6.63,1.79,8.96-3.4,2.33-12.36-3.58-12.36-3.58,0,0-3.4,8.6-8.96,7.88s-5.19-9.67-5.19-9.67c0,0-6.99,6.09-11.1,1.61s.72-10.75.72-10.75c0,0-6.27,0-6.81-3.58s5.01-6.27,5.01-6.27Z"/>
    <g>
      <path class="cls-1" d="M38.36,61.88c.1,0,.13.02.14.03.08,0,.16,0,.24-.03-.13,0-.25,0-.38,0Z"/>
      <path class="cls-1" d="M29.55,49.68s-.03-.01-.04-.02c.04.04.09.08.1.1.06,0,.06,0-.05-.08Z"/>
      <path class="cls-1" d="M32.37,50.32l-.11.09s.06-.04.11-.09Z"/>
      <path class="cls-1" d="M35.32,61.13c.21.15.43.3.69.4-.07-.06-.34-.19-.69-.4Z"/>
      <path class="cls-1" d="M32.51,50.13s.02,0,.03.01c-.05.05-.11.12-.17.17.06-.06.12-.12.18-.18,0,0-.02,0-.04,0Z"/>
      <path class="cls-1" d="M30.24,38.63c-.14.09-.3.18-.46.28,0,.01-.02.04-.01.05l.47-.33Z"/>
      <path class="cls-1" d="M33.63,37.22c-.28-.35-.35-.39-.34-.31.07.05.17.14.34.31Z"/>
      <path class="cls-1" d="M32.04,29.98l-.16.07c.11-.04.19-.07.16-.07Z"/>
      <path class="cls-1" d="M30.74,33.59s-.02.05-.02.09c.03.03.04,0,.02-.09Z"/>
      <path class="cls-1" d="M80.02,32.3l.04-.34c-.02.06-.03.18-.04.34Z"/>
      <path class="cls-1" d="M78.92,43.85s.07.07.1.11c-.03-.04-.07-.07-.1-.11Z"/>
      <path class="cls-1" d="M79.27,44.22c-.08-.09-.16-.17-.24-.25.1.11.19.21.24.25Z"/>
      <path class="cls-1" d="M30.83,38.52c.29-.3,1.16-.83,1.14-.93-.61.31-1.17.65-1.74,1.03.63-.35.99-.45.59-.1Z"/>
      <path class="cls-1" d="M57.44,23.89c.43-.33.65-.51.74-.61-.26.21-.52.42-.77.62h.03Z"/>
      <path class="cls-1" d="M65.26,22.64s-.01-.03-.02-.04c0,.02.01.04.02.07v-.03Z"/>
      <path class="cls-1" d="M56.72,24.57c-.04.05-.09.11-.1.15.16-.13.16-.16.1-.15Z"/>
      <path class="cls-1" d="M41.28,60.78c.08-.04.14-.07.23-.12-.1.05-.17.09-.23.12Z"/>
      <path class="cls-1" d="M65.2,21.84c.03.26.05.53.06.8.05.1.09.2.14.34.14.13-.04-.8-.2-1.14Z"/>
      <path class="cls-1" d="M56.72,24.57c.14-.17.38-.41.69-.67l-.41.22c-.87.7-.41.47-.28.45Z"/>
      <path class="cls-1" d="M33.88,38.23c-.13-.22.11,0,.3.15.21.17.36.29,0-.15-.25-.21-.53-.46-.79-.71.17.09-.11-.46-.12-.6-.39-.25.59,1.28-.34.38-.27-.18-.79-1-1.02-1.43.56.94-.16.07-.42-.29-.29-.62-.78-1.57-.78-1.89-.06-.08-.29-.54-.35-.87l.04-.05c-.26-.72.02.26-.09.09-.2-.53-.24-1.41-.08-2.14-.15.74.07,1.47.31,2.05-.17-.78-.02-.71.08-.44.16.28.38.77.53.9-.47-1.15-.63-1.59-.62-2.41.18-.44.29-.33.32-.18,0,.13.09.45.06.53.01-.38.06-.73.17-.92.1-.21.41-.42.64-.52-.3.21-.34.34-.39.44-.05.1-.05.2-.07.34.25-.09.35-.28.61-.46-.18.08-.4.18-.45.18.27-.14.45-.26.55-.39.1-.13.17-.26.43-.38.77-.05,2.41.16,2.27.36v-.21c1.02.07.52.18.66.27.41-.07-.08-.41,1.73-.09-.23.13.35.26,1,.44.64.17,1.33.4,1.38.58,1.16.37,1.66.4,2.6.72.04-.08-.06-.32-.08-.48-.06-.64.22.01.46.91-.74-.18-1.97-.55-2.44-.74-2.05-.67.19-.09-.63-.36-.62-.18-1.23-.31-1.86-.44.53.17,1.32.42,2,.7.68.28,1.24.53,1.15.57,1.07.34.58.13.15-.06-.44-.19-.82-.37.27-.03l1.46.59c.07.02.13.04.16.05-.48-1.93-.19.19-.82-2.53.3,1,.13.25-.07-.72-.2-.97-.38-2.12-.25-2.03-.08-.04-.18-.36-.27-.83-.07-.31-.12-.66-.17-1.05-.1-.77-.17-1.56-.29-1.72v.87s.12-.21.12-.21c.05.47.12.9.19,1.33.09.57.17,1.13.27,1.77-.16-.64-.2-.52-.25-.44-.04.08-.1.11-.25-.54-.41-1.67.09-.47.05-.71l-.31-1.32-.02.93c-.17-1.04-.35-2.5-.23-3.87.08-.47.14-.52.18-.59.04-.05.05,0,.06.04.03.1.02.2.2-.13.03-.18.04-.26.08-.35.03-.08.11-.21.38-.23-.35-.06-.43.28-.5.43-.11.08-.1-.2.11-.41.22-.2.57-.17.5-.27.28.07.22.14.06.22.25-.02.37-.01.79.03.36.07.7.13,1.01.23.62.18,1.11.43,1.35.63.24,0,.48.03.72.04,1.25.57.78.44.29.28-.51-.14-1.05-.29-.03.19.84.4,1.65.82,2.03.96-.22-.15-.46-.27-.69-.4.6.19.6.09,1.48.56.54.44.17.31.88.74.37.37.54.59.59.73.06.13.03.16-.05.15-.08-.02-.2-.09-.32-.15-.14-.06-.28-.12-.37-.13.25.25.29.37.26.41-.03.04-.11,0-.22-.05-.22-.1-.46-.24-.1.03l-.15-.2c.22.12.41.25.57.38l.27.2s.08.11.11.16l.04.11.08.21.15.42c-.05-.23-.09-.42-.13-.6-.03-.09-.02-.16-.07-.26-.1-.17-.07-.12-.1-.16-.06-.08-.11-.14-.15-.19-.08-.08-.13-.1-.16-.09-.06.01-.06.1-.13-.17l-.59-.56c.11.05.59.38.89.76l.12.14.06.07s.02,0,.12.16c.11.3.17.56.25.79.15.46.27.78.32.83-.02.06-.1.05-.24-.26-.07-.15-.16-.38-.27-.71-.07-.17-.09-.32-.2-.58-.07-.12-.07-.1-.09-.12l-.05-.05-.09-.1.05.26s.11.2.09.23l.02.19.04.4c.08.34.16.64.24.91.08.27.16.49.21.81.11.58.2,1.05.23,1.65.06.68.04.81.01.84-.03.04-.08-.16-.14-.38-.06-.2-.1-.38-.11-.26,0,.06,0,.19.03.44.03.23.06.54.11.97.14-.12.34-.3.6-.53,1.61-1.54,2.47-2.51,3.06-3.14.31-.34.57-.64.9-.96.16-.16.35-.33.54-.5.11-.1.23-.2.38-.32-.08.03-.19.1-.32.2-.22.19-.5.42-.8.68.64-.68-.58.29.49-.74.51-.2,1.69-1.2,2.67-1.9-.19.26.48-.1.21.16.48-.36.91-.7,1.08-.89-1.03.6-.57.24-.06-.14.52-.38,1.1-.78.26-.38,1.59-.93,2-.87,2.93-1.09-.03.03-1.68.73-.33.31,1.4-.59-.34-.21.76-.72-.32.07-.64.08-.99.21-.1-.09.34-.28.81-.36.48-.09.9-.04.94-.06.14.08.04.04-.08.07-.1,0-.31.08-.08.14.23.04.31.07.44.13.12.08.26.2.35.41-.19-.13-.22-.13-.26-.14-.04,0-.09-.04-.23-.07.16.13.27.32.29.39.03.09,0,.08-.05.07-.08-.01-.19-.12.04.48.19.43.23.07.43.9.02-.26.05-.39.01-.6-.03-.2-.12-.56-.4-.98.2.06.38.41.52.91.14.5.23,1.12.38,1.64-.13-.85.02-.29-.21-1.16.16-.16.12-.52.5.26-.13-.49-.3-.81-.49-1.13-.19-.32-.4-.67-.67-.99-.02-.14.21-.04.46.27.26.3.48.78.62.74.41.6.59,2.47.51,3.33.06.32.1.66.13,1l.04.52c.01.16.02.49.02.72.01,1-.04,1.99-.03,2.71.27-.04.57-.12.82-.18.36-.02.88-.08,1.48-.13.53-.04,1.13-.09,1.78-.14,1.1-.07,2.33-.09,3.37.04.32.11,2.48.46,1.23.37.09,0,.55.06.93.14.37.08.67.14.48.02-.18-.01-.34-.1-.7-.18l.35-.07c.47.16.96.3,1.41.51.44.2.84.51,1,.87.01.14-.16-.17-.45-.38-.28-.21-.57-.36-.38-.14.19.06.51.24.75.55.27.32.34.8.35,1.42.01,1.18-.37,2.41-.61,2.96-.28.76-.52.77-.66,1.08-.17.42-.35.84-.54,1.25-.13.12-.2.1-.38.3-.34.58-.5,1.01-.68,1.39-.24.38-.41.58-.52.71-.14.17-.19.18-.17.08,0-.04.05-.15.07-.21.02-.07.05-.15.08-.24.07-.19.15-.4.23-.61.18-.28.36-.56.53-.84.27-.68.71-1.6.31-1.12-.2.46-.13.47-.17.65l-.35.47c-.19.56-.96,1.95-.86,2l-1.58,2.3c.89.57,1.73,1.13,2.38,1.71-.85-.74.34.08.14-.2-.48-.39-.98-.76-1.49-1.11.32.21.69.43,1.04.68.17.12.35.25.53.38l.4.3c.49.38.93.79,1.24,1.15-.15-.02-.18-.03.09.37-.19-.28.14,0,.4.22.25.23.45.37.01-.22-.42-.38-.78-.71-1.29-1.18-.23-.45.63.27,1.14.65.6.52,1.63,1.67,2.1,2.6.11.31.15.52.15.78,0,.13.04.27.07.44,0,.17.04.37.07.63.03-.66.18-.37.2.19,0,.14,0,.3-.01.45-.02.15-.08.3-.11.44-.05.3-.19.51-.22.62-.09.11-.18.22-.26.32-.1.09-.19.17-.28.25-.17.17-.33.34-.51.45-.34.27-.7.48-1.15.61.2-.13.7-.37,1.13-.7.43-.33.8-.74.85-.96-.03-.06-.15-.04-.15-.17,0-.06.03-.16.1-.31.03-.17.14-.39.2-.73-.26.79-.5.95-.52,1.1-.04.14-.03.19-.33.5.15-.15.34-.28.44-.46-.14.26.29-.1-.09.33-.85.77-1.56.96-2.11,1.14-.58.16-1.07.25-1.86.35.37,0-.32.26-.69.34-1.54.16-.03-.26-.99-.3-.65.24-2.19.31-1.61.36-.85.07-.45-.02-1.12-.02-.23.06-.47.11-.8.15-.16.02-.35.04-.56.05-.11,0-.22.01-.34.02-.06,0-.12,0-.19,0-.06,0-.16,0-.14.03.01.01.03.04.04.06-.03-.03-.07-.06-.11-.09-.08-.07.01-.08.18-.1.18-.02.48-.03.98-.03-.39,0-.74-.02-1.03-.05-.27-.02-.58-.09-.64-.07-.02.05-.11,0-.26-.13-.02-.03-.02-.06.04-.06l2.51.02c.96-.16-2.32.01-2.46-.13,1.06-.05,2.03.01,2.68-.05-.6-.07-2.08-.02-3.07.07.25.32.49.63.7.88,1.19,1.65.54,1.01.45.99,1.25,1.53.67.64.17-.16-.54-.83-1-1.55.08-.26.47.51,1.09,1.3,1.63,2.15.59.97.83,1.51,1.08,2.09-.26-1.03.36,0,.68,1.21-.15-.79-.2-.91-.19-1.06-.01-.15-.03-.34-.51-1.22l.11-.1c.37.78.67,1.75.8,2.57-.07-.16-.06.03-.14-.23.17.79.18,1.61-.19,2.27l.04-.23c-.29.61-.96,1.05-1.64,1.17-.7.13-1.39.05-1.83.02.72.08,1.34.19.58.23-.45.04-1.29-.01-1.98-.22-.34-.21-2.87-1.16-1.21-.73-2.08-.73-1.34-.38-3.31-1.22.43.2.87.4,1.3.58.11.2-1.07-.1.15.55-1.51-.62-.69.07-2.65-.92-.74-.5.35-.09,1.47.42-.55-.28-1.01-.61-1.61-.83-.36-.32,1.11.38,1.08.31-.98-.53-.02.08-.96-.39-.79-.36-1.02-.55-1.26-.76-.22-.19-.47-.47-1.06-.76-.04.1-.08.2-.12.32.04-.09.08-.19.13-.3.28.12.59.41.29.26-.1-.04-.22-.18-.24-.12-.83,1.85-.37,1.15-1.08,2.59-.68.73-.6.28-1.53,1.51l.5-.7c-.42.44-.86.95-1.26,1.41-.98,1.22-2.05,2.24-3.43,2.8-1.35.56-3.08.51-4.52-.5.17.11.34.24.52.34l.57.24c.18.12-.06.03-.36-.08-.31-.09-.59-.32-.61-.28-.19-.19-.41-.34-.55-.56-.33.03,1.35,1.17.9,1-.1-.05-.31-.22-.44-.3l.3.24.34.18c-1.53-.81-2.5-1.96-2.81-3.17.18.36.34.63.46.84.14.2.26.33.34.42.17.18.25.2.32.21.07.02.15.02.34.16.19.14.47.44,1.1.84-1.31-.91-.12-.28-.23-.43-.32-.24-.37-.33-.47-.38-.08-.07-.22-.12-.47-.5.03,0,.4.33.69.56.3.23.55.32.24.05-.1.04-.26-.11-.46-.28-.1-.09-.2-.18-.3-.27-.09-.1-.17-.19-.25-.26-.34-.58.09-.04-.03-.31-.22-.29-.35-.48-.49-.78l.2.18c-.36-.85-.38-.99-.51-1.13-.1-.15-.25-.32-.48-1.37-.14-.03.02.62.34,1.46-.06.27-.37-.37-.63-1.08-.27-.74-.43-1.39-.57-1.24-.13-.82-.09-.73-.03-.62.06.11.13.27.09-.55.05-.54.11-.31.2.15.09.45.23,1.12.34,1.33-.07-.63-.12-1.3-.11-2.04.13.21.22.71.31,1.17.11.43.21.87.35,1.02-.13-.79-.2-1.17-.24-1.55-.06-.37-.12-.75-.19-1.58-.05,1.56-.08,1.22-.15.86-.07-.39-.14-.82-.23.03,0-.93.06-1.01.07-1.82-.13.1-.33.26-.59.47.66-.57.47-.55.79-.87.03.05.02.27.03.68,0-.34,0-.63-.01-.72-.65.54-.93.78-1.27,1.06-.34.27-.73.59-1.59,1.13-.28.27.22.03.48-.07.26-.11.29-.04-.74.62-.46.25-.4.14-.12,0-1.6.73.43.05-.53.61-.69.36-.99.36-.71.22-1.06.5-.41.4-1.16.66l.36-.08c-.33.13.69.15-1.04.58-.65.12-.88.11-.95.07-.07-.03.03-.07,0-.1-.25.02-.5.04-.73.05-.23,0-.45-.05-.66-.08-.42-.04-.77-.21-1.1-.35.06.05-.03.06-.34-.04-.79-.42-1.01-.57-1.05-.7-.06-.11,0-.14-.24-.37-.46-.41-.63-.63-.72-.72-.1-.08-.11-.03-.14.01-.02.04-.05.09-.19-.02-.13-.11-.4-.34-.72-.99.48.99,1.22,1.83,2.14,2.5-.17,0-.32.06.35.45.11-.06,1.28.42,2.41.48.16.08-.61.08-1.18-.05-.57-.14-.96-.23-.02.17-.69-.21-1.67-.61-2.31-1.23.39.23-.15-.23-.58-.67-.37-.48-.67-.9-.16-.38-.29-.36-.55-.67-.71-1.01-.17-.33-.36-.62-.44-.92-.1-.3-.2-.57-.27-.83-.05-.27-.09-.52-.13-.77-.1-1-.13-1.98.23-3.55,0,.3-.25,2.35.08,4.03l-.06.16c.36,1.02.25.6.11,0-.04-.31-.1-.68-.11-.94.01-.26.03-.42.07-.33-.18-1.16.06-2.46.54-3.67.11-.29.27-.65.38-.86.1-.22.22-.42.34-.64.25-.43.53-.87.82-1.27l-.58-.02c.27.09-.22.1-.39.16.35.02.54.01.65.02-.1.14-.18.23-.43.52-.07-.03.06-.23.15-.38-.08,0-.18.01-.26.02-.17.04-.06.05.1.05-.09.13-.2.32-.31.44.11-.22.15-.31.17-.37-.15.02-.25.04-.5.07-.17-.1-.08-.15-.24-.27-.2-.03-.36-.06-.51-.09-.18-.04-.34-.07-.48-.1-.41-.11-.72-.18-1.01-.27-.57-.2-1.14-.31-2.18-1.27,1.15,1.03-.47-.53.78.53-.25-.15-.47-.37-.7-.58.9.78,2.36,1.32,3.3,1.49.41.07.67.08.91.08.23,0,.39-.04.4-.11-.63-.07-1.03-.1-1.79-.29-.73-.2-1.54-.44-2.4-1.15l.11.02c-1.15-1.11-.04.08-.35-.15-.69-.62-.95-1.28-1.01-1.8-.05-.27-.08-.51-.07-.77-.01-.26-.04-.53-.03-.85-.12.62-.05,1.27.13,1.9-.5-1.41.09.43-.18.15-.24-.65-.44-1.48-.24-2.35.16-.87.59-1.7,1.12-2.4,1.09-1.41,2.53-2.44,3.88-3.29-.85.38-1.08.49-2.07,1.22.28-.54.72-.81.09-.63-.42.29-.82.62-1.21.97l-.18-.16c.32-.31.67-.56.98-.78.04-.12.52-.47,1.01-.77.49-.3.98-.56.99-.65-.39.22-.75.45-1.12.7-.59.25.63-.59,1.55-1.08-.98.32-2.53,1.4-3.97,2.86.15-.05-1.07,1.56.27.13.05.09-.72.92-1.15,1.64.19-.42-1.1,1.29-.1-.46-.49.81-.54,1.08-.67,1.28-.06.11-.11.25-.19.49-.09.24-.21.6-.26,1.23,0-.18-.22.91.14,2.06.06.29.18.56.3.81.12.24.22.5.35.66.23.34.37.56.28.54.3.3.36.2.59.32.23.1.63.46,1.7.99-.23-.18-.93-.62-1.33-1.04-.4-.42-.54-.59.24-.01-.34-.24-.68-.5-.97-.85-.3-.38-.35-.61-.38-.69-.02-.08.02-.05.05-.03.03.02.05.02,0-.13-.06-.14-.2-.43-.32-1.05.04.18.1.4.18.63.11.22.23.46.35.68.26.42.56.74.62.9-.05-.16.08-.09.32.08.12.09.26.2.42.31.17.1.34.21.53.32.74.42,1.56.67,1.64.58.16.1.44.22.67.29.09.02.19.05.3.08.1.02.18.03.3.05-.1.06.03.17-.27.17-.15-.04-.28-.07-.41-.11-.24-.08-.57-.17-.9-.34.09.22.99.51,1.21.54.23.04.57.05.78.08-.03-.02-.02-.05.2-.08h0c-.3.33-.65.93-.71.73l-.06.15-.09.21c-.05.1-.08.21-.12.31-.16.41-.3.84-.41,1.28-.13.43-.19.9-.28,1.35-.03.47-.11.93-.07,1.42-.1.02-.02-.82,0-1.16-.15,1.04-.05,2.15.22,3.23.09.38-.06.13-.17-.29-.1-.39-.21-.87-.28-1.14.03.4.13.81.2,1.21.09.4.25.79.39,1.18l-.21-.29c.1.29.5,1.08.98,1.8.26.34.52.68.75.99.27.28.49.51.6.66,1.12.9,1.9,1.06,2.7,1.23.8.13,1.77.28,3.48.04-.08.2-1.96.37-2.89.21.18.04.47.08.79.12.32.02.67,0,1.01-.02.68-.04,1.26-.18,1.46-.12,1.19-.35,1.62-.65,1.93-.87.3-.23.44-.43.9-.72.8-.44.13.08.2.09.23-.11.42-.55.51-.37.19-.26.46-.6.08-.39.2-.13.46-.36.65-.57.02.06.04.12.06.12-.2.05-.07.58-.22.81,0,.12,0,.28.02.44.02.11.03.22.05.33,0,.02.04.21.07.34l.1.42c.29,1.13.77,2.24,1.25,2.81l-.42-.27c.26.55.63,1.07,1.01,1.59.47.59.07.33-.36-.27-.47-.58-.91-1.48-1.07-1.89.48,1.14,1.02,2.11,1.85,2.89.8.78,1.84,1.44,3.09,1.68-.71-.23-.27-.17-.58-.33.43.04.92.19,1.42.24.5,0,1.01.09,1.44-.02.21,0,.12.14-.57.18.56-.02,1.13-.15,1.67-.29-.04.1.13.08.12.11,0,.04-.19.16-1.05.33l.8-.17c.25-.08.49-.18.74-.28.83-.27.77-.3.56-.12-.25.14-.78.37-.98.46.9-.27,1.73-.69,2.44-1.18.68-.62-.46.22.85-.9.92-.7,1.74-1.65,2.46-2.66.37-.51.7-1.04,1.01-1.58l.17-.29.06-.09s-.06.02-.1.04l-.06.04-.03.02h0s0-.02,0,0l-.06.09.07-.11s0,0,0,0l.02-.04s.01-.05.01-.07c0-.05,0-.09-.02-.14-.03-.1-.08-.19-.08-.31.05-.08.09-.17.13-.27.14.07.3.19.45.28.07.05.14.09.21.14.19.11.36.22.52.32-.27-.11-.49-.2-.56-.2-.04.02-.06.05-.07.09-.04.02.06.12.22.24.15.12.35.27.6.43,2.33,1.19,1.88.65,3.26,1.15-.59-.08-.18.13.36.34.54.22,1.22.42,1.06.46.84.26,1.71.48,2.68.57.97.07,2.06.1,3.26-.42.29-.11.59-.3.86-.49.26-.21.51-.44.74-.68.43-.53.79-1.16.93-1.8.31-1.27.11-2.37-.13-3.33-.02.09.18,1.24-.01.55-.38-1.42-.59-1.99-.59-2.2-.09-.2-.19-.38-.28-.55-.04-.09-.09-.17-.13-.25,0,.03-.02-.02-.02-.02-.05-.06-.09-.11-.15-.16-.1-.1-.22-.19-.32-.28.15.18.1.19-.02.14-.27-.38-.08-.29-.23-.47-.01-.03.07-.03.12-.06.19.08.05.08.01.13.11.11.2.22.31.24-.03-.05-.07-.1-.11-.15.14-.04.26-.08.44-.17.13.09-.22.05.04.11l.18-.05c.09-.02.04-.03.43-.09.59-.12,1.18-.26,1.76-.43,1.15-.33,2.24-.79,3.07-1.27l.52-.17c1.08-.7,1.71-1.57,1.93-2.24.19-.37.23-.41.18-.26-.06.14-.15.54-.39.84.16-.19.26-.45.37-.71.09-.26.24-.52.26-.78.04-.27.08-.53.1-.79.02-.26-.02-.51-.04-.75-.1-.98-.46-1.69-.66-2.12.14.1.4.88.51,1.19-.27-1.13-.93-2.14-1.58-2.91-.66-.77-1.29-1.4-1.67-1.87.13.09.26.21.38.33-.56-.55-1.12-1.06-1.71-1.51-.26-.2-.39-.27-.63-.41.3-.54.61-1.09.95-1.7.7-1.12.73-1.35.76-1.56.02-.22.05-.43.56-1.64.18.06.53-.77.79-1.81.14-.51.22-1.1.3-1.61.03-.54.09-.99.09-1.32-.02.13-.03.27-.06.4-.03-.38-.04-.72-.1-1.21-.06-.53-.27-1.04-.54-1.49-.61-.9-1.33-1.33-1.79-1.62-2.1-1.02-5.04-1.11-6.94-.95l.38-.08c-.77.03-1.36.06-1.96.09-.27.01-.52.02-.9.11.05-.03.32-.11.1-.11-.04,0-.1.01-.13,0,.02-.19.04-.37.05-.56v-.27s.02-.44.02-.44c0-.95-.05-1.92-.18-2.9-.14-.98-.34-1.98-.77-3-.22-.51-.51-1.03-.93-1.52-.42-.49-1.02-.93-1.71-1.15-.35-.11-.69-.16-1.04-.17-.31,0-.59.04-.89.06-.3.01-.54.11-.82.16-.26.07-.53.13-.77.23-.99.34-1.85.81-2.69,1.3-1.66.99-3.14,2.14-4.57,3.31l-.54.45-.34.3-.34.31-.08.08s-.06.08-.06.01l-.03-.24c-.16-.5-.12-.57-1.17-1.67-.83-.84-1.78-1.44-2.75-2.02-.97-.57-2-1.01-3.06-1.41-.53-.19-1.07-.36-1.63-.51-.27-.08-.57-.13-.86-.19-.31-.07-.54-.09-.96-.14-.82-.04-1.68-.02-2.38.37-.69.45-1.05,1.22-1.23,2.04-.19.9-.19,1.42-.2,2.01,0,.58.02,1.15.07,1.71.04.56.1,1.11.17,1.66l.11.82.09.56c.06.43.2.93.24,1.32-.28-.09-.57-.17-.86-.25-.32-.08-.42-.11-1.31-.28-1.42-.25-2.85-.43-4.39-.26-.77.09-1.59.27-2.39.79-.39.26-.78.62-1.03,1.03-.15.21-.22.42-.31.64-.07.21-.19.43-.2.64-.31,1.74.2,3.15.73,4.36,0,0,.26.38.69.86.42.49,1.02,1.08,1.63,1.6,1.24,1.03,2.52,1.7,2.46,1.13Z"/>
      <path class="cls-1" d="M42.52,59.95c.06-.03.11-.05.18-.09-.07.03-.12.06-.18.09Z"/>
      <path class="cls-1" d="M63.67,62.3l-.42-.2c.14.07.28.14.42.2Z"/>
      <path class="cls-1" d="M78.88,51.87c-.12.13-.27.24-.42.34.21-.12.33-.24.42-.34Z"/>
      <path class="cls-1" d="M65.52,23.78c-.08.21-.4-.81-.38.1.16,1.6.21,1.97.33,2.33.03.11.05.15.07.33.02.18.04.4.05.68.02.56-.03,1.39-.17,2.79.13-.98.27-1.95.34-2.84-.05.05-.09-.03-.12-.22-.03-.17-.06-.54-.08-.72-.04-.48-.1-1.1-.16-1.75l.1-.41c.06.22.12.46.16.71-.02-.5-.12-.4-.14-1Z"/>
      <path class="cls-1" d="M65.66,24.9s0-.06,0-.08v-.04s0,.08,0,.12Z"/>
    </g>
  </g>
  <path class="cls-2" d="M45.45,41.12c-.84,3.73,4.54,5.4,5.72,1.63.97-3.92-4.41-5.76-5.67-1.82l-.05.18Z"/>
  <path class="cls-2" d="M65.93,34.34c-.22-.34-.59-.61-.99-.61-.36,0-.69.22-.91.5s-.34.63-.43.98c-.4,1.47-.37,3.06.06,4.52.11.38.29.79.65.96.38.18.85.02,1.14-.28s.44-.71.55-1.12c.37-1.34.75-3.71-.07-4.96Z"/>
  <path class="cls-5" d="M57.42,47.04c-.14.18-.23.43-.16.65.09.27.39.42.67.49.69.17,1.45.07,2.08-.27.18-.1.35-.22.46-.39s.15-.39.07-.57c-.11-.24-.39-.34-.65-.38-.44-.08-.9-.05-1.34-.04s-.86.17-1.12.52Z"/>
  <path class="cls-6" d="M60.09,46.88c2.01-.88.35-2.89-1.28-2.8-1.73.09-1.93,2.05-1.58,3.37.93.12,2.02-.2,2.86-.57Z"/>
  <g>
    <path class="cls-1" d="M62.61,12.51s-.02-.01-.02-.03c0,0,0,.01-.01.02h.03Z"/>
    <path class="cls-1" d="M63.68,10.61h0s-.02-.02-.02-.04t.02.04Z"/>
    <path class="cls-1" d="M63.4,11.08s-.02-.02-.04-.03c0,.02.02.03.04.03Z"/>
    <path class="cls-1" d="M62.86,12.49s-.05-.02-.08-.04c.02.04.06.06.08.04Z"/>
    <path class="cls-1" d="M63.48,11.11s-.05-.02-.08-.03c.03.02.05.03.08.03Z"/>
    <path class="cls-1" d="M64.43,10.3s-.03-.02-.05-.03c0,0,0,.02,0,.03h.04Z"/>
    <path class="cls-1" d="M59.25,23.88s-.06-.01-.1,0c.03,0,.06,0,.1,0Z"/>
    <path class="cls-1" d="M59,23.15s.02,0,.03,0c-.02,0-.03-.01-.03,0Z"/>
    <path class="cls-1" d="M58.49,23.8s-.03.02-.04.02c.01,0,.03,0,.04-.02Z"/>
    <path class="cls-1" d="M56.54,17.27h-.05s.04,0,.05,0Z"/>
    <path class="cls-1" d="M57,15.88h0s0,0,0,0Z"/>
    <path class="cls-1" d="M57.02,15.84l-.02.03s.02-.02.02-.03Z"/>
    <path class="cls-1" d="M64.56,10.51c0-.08.06-.13.02-.23h-.15c.07.06.14.15.13.23Z"/>
    <path class="cls-1" d="M59.3,20.52s-.02-.05-.04-.07c.01.02.02.04.04.07h0Z"/>
    <polygon class="cls-1" points="58.52 19.55 58.53 19.56 58.53 19.55 58.52 19.55"/>
    <path class="cls-1" d="M59.4,20.59s.03,0,.05.01c0-.01-.02-.02-.05-.01Z"/>
    <path class="cls-1" d="M62.55,12.97v.03s0-.02,0-.03Z"/>
    <path class="cls-1" d="M58.37,19.58l.15-.03s-.04-.03-.07-.04c-.11-.03-.11.04-.08.08Z"/>
    <path class="cls-1" d="M59.4,20.59c-.05-.02-.08-.04-.1-.07l-.08.02c0,.07.11.05.18.04Z"/>
    <path class="cls-1" d="M58.88,24.1c.06-.07.23.02.23-.08h-.19c.08-.02.16-.1.23-.14-.17.03-.22.2-.47.19-.1.02-.11-.06-.1-.1,0,.09-.15.05-.22.04.05-.07-.01-.14.08-.2-.04,0-.07-.02-.07-.06l.05-.02c-.07-.04-.04.04-.1.04-.03-.04.06-.14.03-.21.03.07.12.1.19.13.05-.15.28-.07.43-.09-.1-.07-.21-.07-.32-.12.08-.13.4-.12.42-.1-.1-.06-.3-.1-.38-.13.23,0,.29-.03.48-.02.1-.1-.05-.07-.14-.08.03.01.05.04,0,.06,0-.08-.33.02-.48.02.07-.09.08-.22.28-.26l-.21.05c-.07-.06.1-.06.16-.09-.15,0-.34.09-.43-.02.34-.06,0-.12.31-.18-.03-.05-.21-.04-.19-.11.16-.1.43,0,.39.05.03.08-.14.02-.13.05l.11.06c.05-.06.11-.16.25-.18-.08-.06-.13.09-.23.03l.06-.07c-.09-.07-.23.07-.29-.04.16.05-.02-.13.2-.16-.28.05-.08-.2-.31-.19l-.05.07.12-.03c.02.07.11.11.07.18-.11-.04-.23.06-.33.01-.19-.09.14-.06.14-.07l-.17-.07-.11.09c-.07-.07-.1-.17-.09-.28.15-.18.16,0,.3-.13-.07-.04-.14-.02-.12-.1-.08.05.04.06.04.09-.17.06-.1-.12-.27-.09.06-.04.14-.04.21-.02-.09-.11-.07-.23.15-.29l-.22-.04c.06-.21.21.13.33-.05.02-.07,0-.14-.09-.16v.06c-.12-.04-.21-.03-.29-.11.02-.05.16-.03.04-.09.12-.16.34-.05.54-.03.12-.11.42.05.32-.02l-.05.02-.29-.11c-.24.11.22.04-.02.09l-.02.07c-.12-.02-.03-.17-.17-.18.07,0,.24.02.25.08l.27-.04s-.15-.06-.03-.08c.17-.05.28.08.35-.05.06-.14-.28-.14-.22-.24-.06,0-.06.03-.07.06-.09-.04-.17.02-.23-.04.18-.02.18-.13.18-.21.1.03.2-.02.25.01-.02-.04-.05-.08-.13-.1-.15.15-.14-.17-.33-.06.02-.13.19-.14.29-.2.05.01.09.15.18.06-.17-.15-.27,0-.48-.14l-.08.08c-.23-.02-.04-.15-.09-.18.07-.04.05.08.22.05.06-.07-.08-.13.01-.16.15.07.09.03.22.11.02-.17.18.04.29-.08-.02-.04-.16-.04-.11-.1-.17,0-.23,0-.25.1-.24-.08.08-.13-.05-.24-.03.06-.05.01-.03.08-.2-.03-.24,0-.42-.11.04.09.25.16.18.25-.21,0-.14-.16-.41-.21-.12-.08.02-.2.13-.24-.14-.14-.12-.28-.33-.42.1-.06-.07-.33.04-.46.12.01.14-.16.23-.02-.03-.02-.01-.15-.13-.16.03.03,0,.03,0,.06l-.13-.07c.08-.05-.07-.2.04-.24.12.02.03.16.18.16-.2-.15-.16-.46-.04-.5.05-.05.23.03.26.01l.03-.1c.06.02.13.04.2.06.06-.02.02-.08,0-.12.17-.06.27.07.35.19l-.09.03c.05.08,0,.13.16.17,0-.04-.07-.07-.1-.1h.11c-.05-.06-.03-.18-.15-.23.12-.03.07-.17.19-.18-.1,0-.11-.08-.21-.12l-.08.06c0-.08-.03-.23.09-.24.07.05.09.07.18.08-.12-.02-.06-.19-.24-.17.02.06.01.1-.03.14-.18-.06-.15-.14-.21-.24,0-.07.01-.2,0-.31.06-.02.24.08.19-.06-.21,0-.17-.25-.3-.38.12-.03-.03-.21.13-.18.03.07-.06.18.03.28.1.08.29.18.27.32.14-.08-.04-.14-.03-.22l-.02.05s-.13-.07-.11-.11c.15-.12.28-.06.47-.06-.09-.04-.12-.13-.11-.16.17-.01.21.18.4.25-.06-.11.01-.14-.07-.18.03-.04.05.02.1.02-.06-.09-.09-.16-.04-.21.04.04.09.11.03.13.08-.02.24.09.3.19l-.12.03c.07.12.11-.04.2.05,0,.05-.09.03-.08.07.12.07.08-.09.11-.13.08-.04.15.07.21.12-.06-.25-.29-.05-.35-.29-.08-.14.03-.23.07-.31-.18-.07-.18-.19-.14-.3-.1.09-.17-.13-.2.07l-.1-.1s.15-.06.2-.1c.02.04.05.05.05.08l.1-.18.05.08c.1-.07.28-.09.3-.17-.04.05-.17-.03-.15-.1-.01-.07,0-.17.05-.19.13.11.29-.03.29.19.08-.17,0-.16.08-.34l-.06.1c-.09-.1-.15-.33-.29-.33.05-.14-.16-.28-.03-.41.11.02.14.23.08.31.05-.02.13.01.11-.09.09.07.04.21.07.24.08-.05-.04-.06,0-.14.03-.21.21.12.26-.03-.02.02-.09.02-.1-.05.16-.11.01-.17.09-.3.17.11.26.31.38.27l-.06.04c.09.05.16.06.2.03.12-.27.15-.64.31-.9l-.06.09c-.06-.04.03-.11,0-.17l.1.05c-.05-.13-.18-.05-.22-.18.02.01.04,0,.04-.01h-.07c.13-.03.1-.3.3-.15-.21.15.16.38-.01.56.08-.11.09.12.13.16.07,0-.02-.11.06-.11.05.09-.05.25.05.28-.07-.14,0-.15-.02-.25.07,0,.05.09.09.12.02-.02,0-.09.04-.08l.03.09c.2.05-.03-.15.14-.19-.06-.11-.09-.06-.14,0-.17-.23.06-.37-.1-.64.13-.12.02.13.18.13.16.13,0,.23.03.37l.18.04c.07.24-.04.21.04.42.1-.04.06-.09.11-.21-.24-.08,0-.17-.2-.34.1.02.1.08.21.02-.04.08.09.18,0,.23.13-.09.07-.12.21-.2-.03-.18-.25-.13-.13-.33.04-.02.06.04.04.05.15,0-.12-.18-.08-.3.05-.05.1,0,.09.05.04-.13-.05-.21-.01-.27h-.03c0-.06-.17-.26-.05-.32.09-.04.1.06.13.11.04-.09.12-.07.19-.03-.02-.03-.03-.06,0-.07.1-.11.13.1.18.11.2,0-.15-.28.03-.38l-.24.05c-.03-.08-.07-.2-.12-.18.05.12.02.25-.07.27-.08-.12.13-.24-.06-.33.06,0,.1-.06.16-.08,0,.17.19-.05.17.15.23-.14.3-.06.48-.26.02.1-.03.39-.17.37l-.04-.08c-.1.16.15.04.19.19.08-.3.44-.06.62-.23-.07-.06-.04-.12-.07-.2-.08.05-.05.08-.15,0-.03-.11.04-.09.04-.18-.02-.12-.07.03-.12-.02.06-.09.04-.11.06-.22.08.07.1.13.17.21.21-.06.11-.26.29-.28-.1.01.09.1-.02.1h.06c-.08.21-.32.31-.19.57.1-.07.13-.26.27-.32v.05c.12-.03-.01-.07,0-.12.08-.14.25.2.25-.02h-.13c.04-.14-.03,0-.08-.19.1-.2.41-.21.58-.43-.1-.07-.12-.07-.21-.04-.06-.26,0-.24-.13-.43l-.11.03-.09-.23s.06-.01.09,0c-.04-.15.17-.02.13-.16l-.08.05c-.09-.1.02-.13.07-.19-.12-.12-.19.08-.31.14.04.08-.02.3.11.27.03.09-.02.17-.06.19,0-.06-.19-.21-.11-.32-.07.15-.05.02-.15.12,0-.07-.21.09-.27-.11,0,.1.12.29-.02.35.09.12.25.08.21.27l.03-.12c.12.02.03.15.18.16-.04,0-.09.11-.14.02.15.27-.13.22-.05.43-.06-.07-.1-.07-.16-.02-.02-.08-.09-.14-.06-.22.05,0,.07-.04.15,0-.14-.27-.22-.02-.36-.03.03.02.04.04.03.1-.09-.02-.27,0-.28-.15l-.35.19c-.03-.07.04-.05.05-.08l-.21.08c-.09-.07.03-.12.01-.22l-.15.07-.02-.1c-.01.07-.17.18-.27.05-.14.12,0,.4-.29.38-.06-.15.1-.11.11-.22-.07-.03-.15.13-.24,0-.12.16.02.4,0,.57-.12.07-.07-.11-.1-.15-.04.01.02.3-.1.13-.01.13.01.27.13.27-.07.03-.13.15-.12.22-.05-.23-.12-.04-.21-.21-.12.02-.37.09-.35.36l-.09-.24-.11.09c-.16-.08.03-.2.08-.24-.18.07-.28.14-.42.23.07.02.07.08.13.14,0,.12-.1.09-.14.15-.04-.04-.07-.1-.03-.14l-.08.09c-.07-.14-.12-.11-.07-.26l-.07.1c-.12.03-.06-.11-.06-.17l-.18.08c-.01.11.11.1.02.2-.22-.03-.39.16-.58.23l.2.04c-.12.04.04.23.07.34-.11.04-.22.14-.33.15.02-.16-.13-.28-.28-.31-.2.13,0,.3-.04.46-.11-.31-.19.02-.28-.12-.23.2-.38.49-.62.7.03.03.13,0,.12.07-.05.12-.17.07-.23.04-.09.13-.08.26-.04.35.02-.07.06-.04.11.03-.08.12-.21-.05-.19.15-.15-.08.04-.17-.08-.27-.1.09-.1.2-.1.33-.09-.05.04-.08-.07-.09-.08.2-.15.46-.2.62l-.13-.05c-.05.09-.07.16-.04.23-.08.01-.08-.04-.06-.09-.09.1-.09.3-.12.37-.06-.06.03-.07-.02-.13-.12.12,0,.44-.21.44-.01-.02,0-.04,0-.05-.14.2-.14.44-.25.68-.26.14.15.16.04.36-.34-.15-.15.28-.25.34h.06c.09.15-.08.25-.2.29-.08.16-.17.4-.06.61l-.07-.05c.06.16-.08.22-.02.38-.03-.01-.06-.07-.1-.03-.27.64-.14,1.37-.21,2.02-.16,1.26.03,2.91.75,3.98,0,0,.42,0,.89-.04.48-.05,1.01-.16,1.29-.32Z"/>
    <path class="cls-1" d="M62.54,13.21h-.02s.02,0,.02,0Z"/>
    <path class="cls-1" d="M60.22,14.46s.02-.02.03-.03c-.01,0-.02.01-.03.03Z"/>
    <path class="cls-1" d="M59.04,16.38v-.04s0,.03,0,.04Z"/>
    <path class="cls-1" d="M58.47,19.45c.11,0,.28.12.38.07.06-.22-.39-.18-.31-.42l-.15.1c.18.04.27.15.27.24h-.14s-.07-.05-.09-.07c-.02.03.08.05.04.08Z"/>
    <path class="cls-1" d="M58.44,19.36h-.01s0,0,0,0c0,0,0,0,0,0Z"/>
  </g>
  <g>
    <path class="cls-1" d="M31.11,23.24s0,.02,0,.03h.02s0-.03,0-.03Z"/>
    <path class="cls-1" d="M29.92,24.23h0s0,.03,0,.04t0-.04Z"/>
    <path class="cls-1" d="M30.17,23.96s0,.03,0,.05c0-.02,0-.03,0-.05Z"/>
    <path class="cls-1" d="M31.02,23.11s0,.05,0,.08c.01-.04.02-.08,0-.08Z"/>
    <path class="cls-1" d="M30.16,23.89v.06s0-.05,0-.06Z"/>
    <path class="cls-1" d="M29.62,24.2s0,.03,0,.04c0-.01,0-.02,0-.03h-.01Z"/>
    <path class="cls-1" d="M37.56,29.89s-.02-.07-.06-.08c.02.02.04.04.06.08Z"/>
    <path class="cls-1" d="M37.95,29s.01.02.03.03c0-.02-.02-.03-.03-.03Z"/>
    <path class="cls-1" d="M37.13,29.26s-.03-.01-.05-.01c.01,0,.03.01.05.01Z"/>
    <path class="cls-1" d="M34.12,26.35l-.02.04s.02-.03.02-.04Z"/>
    <path class="cls-1" d="M33.42,26.03h0s0,0,0,0Z"/>
    <path class="cls-1" d="M33.4,26.01h.01s0,0-.01,0Z"/>
    <path class="cls-1" d="M29.63,23.95c-.02.08-.05.1-.06.2l.05.05c-.01-.08-.01-.18.01-.25Z"/>
    <path class="cls-1" d="M37.95,25.56s-.06-.05-.08-.05c.03.02.05.03.08.05h0Z"/>
    <polygon class="cls-1" points="36.67 25.32 36.68 25.31 36.67 25.31 36.67 25.32"/>
    <path class="cls-1" d="M38.08,25.59s.03,0,.05-.01c-.01-.01-.03,0-.05.01Z"/>
    <path class="cls-1" d="M31.4,22.94h.02s-.01,0-.02,0Z"/>
    <path class="cls-1" d="M36.6,25.45l.07-.13s-.05.02-.07.03c-.09.06-.04.11,0,.1Z"/>
    <path class="cls-1" d="M38.08,25.59c-.05,0-.1,0-.13-.02l-.05.07c.05.08.13-.01.18-.05Z"/>
    <path class="cls-1" d="M37.15,29.75c.09.01.14.18.2.14l-.11-.17c.06.05.18.06.25.09-.13-.11-.3-.04-.45-.24-.08-.07-.02-.12.02-.14-.07.05-.14-.07-.18-.12.08-.01.09-.09.2-.07-.03-.02-.04-.06-.01-.08l.05.02c-.02-.07-.06,0-.11-.04,0-.04.14-.06.15-.13-.01.07.03.14.07.21.14-.09.26.12.38.21-.02-.13-.1-.21-.16-.33.14-.07.39.14.39.17-.04-.13-.18-.29-.23-.36.19.13.26.14.41.26.15-.05,0-.12-.06-.18.01.03.02.07-.03.07.05-.1-.29-.17-.42-.25.11-.05.18-.17.37-.13l-.21-.04c-.04-.09.11-.03.19-.03-.14-.05-.35-.05-.39-.19.34.06.04-.12.35-.09-.01-.07-.18-.11-.15-.18.18-.07.42.13.36.17,0,.11-.14-.03-.14.02l.08.11c.07-.05.16-.15.3-.13-.06-.11-.15.07-.23-.05l.08-.06c-.08-.11-.24.01-.28-.13.15.1,0-.15.23-.14-.28,0-.05-.25-.28-.26l-.06.07.12-.03c.01.08.09.14.05.22-.11-.06-.24.03-.33-.04-.18-.12.15-.04.15-.06l-.16-.09-.12.08c-.05-.07-.08-.17-.07-.27.14-.18.16,0,.3-.14-.07-.04-.14-.02-.13-.09-.07.05.05.06.04.09-.17.06-.11-.11-.27-.07.06-.04.13-.05.21-.04-.1-.1-.09-.21.11-.32h-.22c.01-.21.23.09.31-.12,0-.08-.04-.15-.13-.15l.02.06c-.13,0-.21.02-.31-.02,0-.06.15-.08.01-.1.05-.2.29-.18.49-.22.05-.17.41-.09.29-.14l-.04.04-.32-.02c-.17.21.23-.04.02.1v.08c-.11.02-.1-.17-.23-.13.07-.03.23-.08.27-.01l.23-.15c0-.06-.17-.01-.07-.09.12-.14.3-.01.28-.22-.04-.22-.33-.04-.35-.17-.05.04-.03.06-.01.1-.1,0-.13.1-.22.08.14-.12.07-.23.01-.3.1-.03.15-.13.21-.14-.05-.03-.1-.05-.18-.03,0,.23-.23-.07-.3.15-.07-.12.05-.24.07-.37.05-.03.19.07.18-.08-.24-.01-.2.18-.45.22v.11c-.19.14-.14-.09-.19-.07.01-.08.1.02.19-.12,0-.1-.15-.04-.11-.13.15-.06.09-.05.23-.09-.13-.15.15-.11.13-.29-.05-.02-.14.09-.16.01-.1.14-.15.17-.08.27-.22.12-.06-.16-.22-.13.03.06-.02.05.05.08-.15.14-.16.18-.35.25.09.02.28-.1.3.03-.15.15-.21,0-.42.17-.14.05-.12-.11-.09-.22-.19.04-.27-.04-.49.08.01-.1-.26-.05-.3-.18.07-.1-.05-.16.09-.2-.03.02-.12-.03-.18.07.03-.02.02,0,.04.02l-.12.1c0-.08-.17.02-.15-.09.07-.1.13,0,.2-.12-.19.13-.41.07-.39-.05-.01-.05.11-.2.11-.22l-.07-.04c.03-.05.08-.11.12-.17,0-.06-.06-.02-.1-.01,0-.15.15-.24.27-.3v.08c.09-.04.11.03.19-.12-.03,0-.08.05-.11.07l.04-.09c-.07.03-.17,0-.25.11.01-.11-.12-.07-.09-.19-.03.09-.1.1-.16.19l.03.07c-.07,0-.19.02-.17-.09.06-.06.08-.08.11-.16-.05.11-.17.05-.2.21.05-.02.09-.01.11.02-.1.15-.16.13-.25.19-.06,0-.16,0-.24,0,0-.05.12-.22,0-.16-.05.18-.24.17-.37.3,0-.1-.17.05-.11-.09.06-.03.12.03.23-.06.09-.1.2-.27.31-.26-.04-.12-.12.04-.19.05h.04s-.08.13-.11.11c-.06-.12,0-.24.04-.41-.04.08-.13.12-.15.12.01-.14.17-.21.26-.39-.1.07-.12,0-.16.09-.03-.02.02-.05.02-.09-.08.07-.14.1-.18.07.04-.04.1-.1.11-.05,0-.07.1-.23.18-.3l.02.11c.11-.08-.02-.09.06-.19.05,0,.02.08.06.07.07-.12-.07-.06-.11-.08-.04-.06.07-.15.11-.21-.22.1-.05.27-.27.37-.13.1-.19.02-.27,0-.07.18-.16.2-.26.2.07.06-.11.18.04.15l-.09.11s-.04-.11-.07-.14c.03-.02.04-.06.07-.07l-.15-.03.07-.07c-.06-.06-.07-.21-.14-.2.04.01-.02.15-.08.16-.06.03-.13.06-.16.03.08-.14-.04-.23.14-.31-.15,0-.13.05-.28.06h.09c-.07.12-.25.26-.24.37-.12.02-.21.24-.32.2.01-.09.17-.21.24-.2-.02-.03,0-.1-.08-.05.04-.1.16-.12.18-.16-.04-.04-.04.06-.11.06-.16.07.08-.22-.05-.19.02,0,.03.06-.03.1-.1-.07-.13.07-.24.08.07-.19.2-.35.16-.43l.04.03c.03-.1.02-.15,0-.17-.24.04-.51.22-.73.27h.08c-.02.06-.08.03-.12.1v-.09c-.07.12.02.16-.07.26,0-.02,0-.03-.02-.02v.05c-.04-.08-.21.11-.15-.11.14.05.22-.34.39-.33-.1,0,.06-.14.09-.19-.02-.05-.07.08-.09.02.05-.09.19-.11.18-.2-.08.13-.11.08-.18.16-.01-.05.05-.09.06-.14-.02,0-.06.05-.07.02l.06-.08c-.02-.17-.1.11-.18.02-.06.11-.02.1.04.1-.12.26-.27.2-.41.47-.11,0,.08-.09.04-.2.04-.19.15-.15.24-.26l-.03-.15c.14-.2.16-.1.28-.29-.06-.05-.08.01-.19.05.02.22-.12.11-.17.36-.02-.08.02-.12-.05-.15.07-.03.09-.18.15-.15-.11-.03-.1.03-.21,0-.1.14,0,.25-.17.31-.02,0,0-.07.02-.06-.05-.1-.08.2-.16.26-.04,0-.03-.06,0-.1-.09.06-.11.18-.16.2v.03s-.09.28-.17.26c-.05-.02,0-.1.03-.16-.06.04-.07-.02-.08-.09-.01.03-.03.06-.04.06-.09.02.02-.15,0-.19-.07-.12-.11.3-.21.27l.1.1c-.04.08-.09.19-.06.2.05-.12.13-.2.17-.17-.05.14-.17.11-.17.28-.01-.03-.06,0-.08-.03.09-.14-.08-.07.03-.21-.14-.01-.12-.12-.28-.05.04-.09.2-.3.24-.21l-.02.08c.12-.07-.03-.12.04-.25-.18.19-.19-.18-.35-.13,0,.08-.04.12-.06.2.05,0,.05-.04.06.07-.04.11-.05.06-.09.13-.04.12.03.01.03.08-.06.05-.06.07-.11.16,0-.1.02-.15.03-.27-.1-.05-.14.17-.22.11.04.03,0-.13.05-.08l-.03-.02c.11-.16.25-.12.31-.41-.08,0-.16.16-.24.15v-.05s0,.07-.02.12c-.08.09-.03-.29-.11-.1l.06.06c-.07.11.01.02-.04.21-.11.12-.24.01-.36.14.02.11.03.11.07.12-.05.26-.06.22-.07.45l.04.02-.03.24s-.02-.01-.03-.04c-.02.15-.06-.05-.07.09l.03-.02c0,.13-.03.11-.06.15,0,.16.07,0,.11,0,0-.09.08-.26.04-.29.01-.1.05-.15.07-.15-.02.05,0,.27-.06.33.06-.11.02,0,.07-.05-.02.07.08.01.04.22.03-.09.06-.31.12-.31.02-.14-.05-.18.03-.32l-.05.09c-.03-.07.04-.15,0-.22.02.01.07-.06.05.04.05-.31.12-.13.17-.35,0,.09,0,.11.05.09-.02.08-.03.16-.07.21-.02-.03-.04,0-.05-.07-.06.3.06.11.1.19,0-.03,0-.05.03-.09.02.05.08.12.02.26.06,0,.11.01.17.01-.02.07-.03.02-.05.04l.09.04c-.01.1-.06.08-.1.17h.06s-.04.1-.04.1c.04-.06.12-.05.08.1.08-.02.2-.31.24-.14-.07.14-.08.03-.14.12,0,.06.09-.02.04.12.1-.05.21-.31.31-.43.06.02-.05.12-.07.16.01.02.17-.23.09-.03.08-.09.16-.2.13-.27.03.02.11-.03.15-.08-.13.19,0,.1-.09.27.03.06.11.16.28-.03l-.14.21h.07c-.03.17-.13.12-.16.12.06.06.12.08.19.11,0-.06.05-.09.08-.17.08-.07.07,0,.11,0-.03.06-.06.1-.09.11h.06c-.09.13-.06.14-.16.2h.07s-.07.09-.11.13l.06.07c.07-.06.06-.13.13-.13,0,.16.11.17.16.26l.03-.16c.02.07.16-.15.23-.22.03.05.1.08.1.16-.11.07-.2.23-.22.34.08.08.21-.15.32-.19-.22.22,0,.13-.11.26.12.07.3.07.42.17.03-.04.02-.1.07-.12.07,0,.02.11-.02.16.07.02.17-.03.24-.08-.04,0-.02-.03.04-.09.07.02-.07.17.07.1-.09.14-.11.02-.21.15.04.05.12.02.21-.01-.06.09-.05,0-.08.08.12,0,.29,0,.38,0l-.07.12s.09.02.15-.01c-.01.06-.05.07-.08.07.04.05.18.02.22.03-.06.06-.04-.01-.09.03.04.08.3-.06.23.11-.02.01-.03.01-.04,0,.09.09.24.08.35.16-.01.2.17-.13.25-.04-.24.28.11.12.1.21l.02-.05c.14-.07.11.08.07.18.05.07.13.15.3.1l-.07.04c.12-.02.06.09.18.06-.02.02-.07.03-.07.07.12.29.47.35.57.59.07.2.1.42.14.61.03.19.07.34.13.57,0,0,.34.19.71.46.37.26.79.63,1.07.76Z"/>
    <path class="cls-1" d="M31.56,22.78s0,0,0,.01c0,0,0-.01,0-.01Z"/>
    <path class="cls-1" d="M32.92,23.76s-.01,0-.02,0c0,0,.01.01.02,0Z"/>
    <path class="cls-1" d="M34.38,24.25h-.03s.02,0,.03,0Z"/>
    <path class="cls-1" d="M36.57,25.3c.07-.08.26-.15.29-.26-.14-.17-.37.2-.5.03v.16c.12-.13.25-.14.32-.09l-.09.11s-.08.03-.11.03c0,.03.09-.04.08.01Z"/>
    <path class="cls-1" d="M36.48,25.28h0s0,0,0,0c0,0,0,0,0,0Z"/>
  </g>
  <g>
    <path class="cls-1" d="M28.07,57.02s.02,0,.03.02c0,0,0-.01,0-.02h-.03Z"/>
    <path class="cls-1" d="M28.27,58.77h0s.02.02.04.03t-.04-.03Z"/>
    <path class="cls-1" d="M28.21,58.34s.03.01.04.02c-.01-.01-.03-.02-.04-.02Z"/>
    <path class="cls-1" d="M27.9,57.08s.05.01.08.02c-.03-.03-.07-.04-.08-.02Z"/>
    <path class="cls-1" d="M28.14,58.33s.05,0,.07.01c-.03-.01-.05-.01-.07-.01Z"/>
    <path class="cls-1" d="M27.94,59.19s.03,0,.05,0c0,0-.01-.01-.02-.02h-.03Z"/>
    <path class="cls-1" d="M36.93,51.04s-.07,0-.09.05c.02-.02.05-.04.09-.05Z"/>
    <path class="cls-1" d="M35.97,50.48s.02-.01.03-.02c-.02,0-.04.02-.03.02Z"/>
    <path class="cls-1" d="M36.23,51.36s-.01.03-.02.05c0-.01.02-.03.02-.05Z"/>
    <path class="cls-1" d="M32.35,54.38l.04.03s-.03-.02-.04-.03Z"/>
    <path class="cls-1" d="M31.8,55.04h0s0,0,0,0Z"/>
    <path class="cls-1" d="M31.78,55.05h.01s-.01,0-.01,0Z"/>
    <path class="cls-1" d="M27.73,59.05c.05.07.04.12.11.18l.1-.04c-.08-.02-.17-.08-.21-.14Z"/>
    <path class="cls-1" d="M32.25,50.38s-.05.05-.05.08c.02-.02.03-.04.05-.07h0Z"/>
    <polygon class="cls-1" points="31.94 51.6 31.94 51.59 31.94 51.6 31.94 51.6"/>
    <path class="cls-1" d="M32.28,50.25s0-.03-.01-.05c-.01.01,0,.03.01.05Z"/>
    <path class="cls-1" d="M27.91,56.63v-.02s0,.02,0,.02Z"/>
    <path class="cls-1" d="M32.06,51.69l-.12-.09s.01.05.02.08c.05.1.1.06.1.02Z"/>
    <path class="cls-1" d="M32.28,50.25c0,.05,0,.09-.02.13l.07.05c.08-.05,0-.12-.05-.18Z"/>
    <path class="cls-1" d="M36.75,51.44c.02-.09.2-.11.16-.18l-.18.08c.06-.06.08-.18.11-.25-.12.11-.07.31-.28.42-.08.06-.13,0-.15-.05.05.08-.09.13-.14.16,0-.09-.09-.11-.06-.22-.03.03-.07.03-.09,0l.02-.05c-.08.01,0,.06-.05.1-.05,0-.06-.15-.13-.18.07.03.16-.01.24-.04-.08-.16.15-.24.25-.35-.15,0-.24.06-.37.1-.07-.16.17-.38.21-.37-.15.02-.33.14-.41.18.16-.18.17-.25.31-.38-.05-.16-.13-.02-.2.04.03,0,.08,0,.08.04-.11-.06-.2.27-.3.39-.05-.11-.19-.2-.13-.39l-.05.21c-.1.03-.02-.12-.02-.19-.07.13-.07.34-.23.37.08-.33-.13-.05-.08-.36-.08.01-.13.18-.21.14-.08-.18.16-.41.21-.35.12,0-.04.14.01.14l.12-.07c-.05-.08-.17-.17-.13-.31-.13.05.08.16-.06.22l-.07-.09c-.13.07,0,.24-.16.27.12-.15-.17,0-.16-.23,0,.28-.3.04-.31.28l.08.06-.02-.13c.09-.01.17-.09.26-.04-.07.1.02.24-.06.33-.15.17-.04-.15-.06-.15l-.12.16.08.12c-.09.05-.2.07-.32.07-.2-.14,0-.16-.16-.3-.05.07-.02.14-.1.13.06.07.07-.05.1-.04.07.17-.13.11-.08.28-.04-.06-.05-.13-.04-.21-.12.1-.24.1-.35-.1v.23c-.23,0,.1-.24-.13-.31-.09,0-.16.04-.16.14l.07-.02c0,.13.02.21-.02.31-.06,0-.08-.15-.1,0-.2-.05-.18-.29-.22-.49-.17-.05-.09-.41-.14-.29l.04.04-.02.32c.21.17-.04-.23.1-.02h.08c.02.11-.17.1-.13.23-.03-.07-.08-.23,0-.27l-.15-.23c-.06,0-.01.17-.08.07-.14-.13-.01-.3-.21-.29-.2.03-.04.32-.17.34.04.05.06.03.1.02,0,.1.1.13.07.23-.11-.15-.22-.08-.3-.03-.03-.1-.12-.16-.13-.22-.03.04-.05.09-.03.17.22.03-.08.22.13.31-.12.06-.23-.07-.35-.11-.02-.05.08-.18-.07-.18-.02.23.15.22.18.47l.11.02c.13.2-.09.12-.08.18-.07-.02.03-.09-.1-.2-.09,0-.05.14-.13.09-.04-.16-.04-.09-.06-.24-.15.1-.09-.16-.25-.17-.02.05.07.15,0,.16.12.12.15.17.24.12.1.23-.15.03-.14.19.06-.02.04.03.08-.03.12.17.15.18.2.38.03-.08-.06-.29.05-.29.13.16-.02.2.12.44.03.14-.13.11-.23.05,0,.19-.09.26-.01.5-.1-.03-.11.26-.26.27-.08-.09-.18.02-.18-.13.01.04-.06.12.02.19-.01-.04.01-.02.03-.04l.07.14c-.09-.02-.03.18-.13.14-.08-.09.05-.13-.07-.22.08.22-.05.43-.17.39-.06,0-.17-.15-.2-.15l-.06.06s-.09-.1-.14-.16c-.06-.01-.04.06-.05.1-.16-.03-.2-.19-.23-.33h.09c-.01-.08.06-.09-.07-.21-.02.03.03.09.04.13l-.09-.06c.01.08-.05.17.04.28-.12-.03-.12.11-.24.06.09.04.07.12.15.2h.09c-.03.05-.04.19-.15.15-.04-.07-.06-.1-.13-.14.1.07,0,.19.16.25,0-.06.01-.09.06-.11.13.13.09.19.12.29-.01.06-.06.16-.07.25-.06,0-.19-.16-.17-.03.17.08.11.28.2.43-.1-.02,0,.19-.12.1-.02-.07.07-.13,0-.25-.07-.1-.22-.25-.18-.37-.14.02,0,.13,0,.21l.02-.04c.02.05.1.11.08.13-.14.05-.24-.04-.42-.11.07.06.09.15.08.17-.15-.03-.17-.21-.33-.33.05.11-.02.13.05.19-.03.03-.04-.03-.09-.04.05.1.07.17.02.2-.03-.05-.08-.12-.02-.12-.07,0-.21-.14-.26-.24h.12c-.05-.13-.1,0-.18-.09.01-.05.09,0,.09-.05-.11-.09-.09.06-.11.1-.07.03-.14-.09-.18-.15.04.25.27.1.31.33.07.15-.03.2-.07.28.17.1.16.2.13.3.08-.06.15.14.17-.02l.09.11s-.13.02-.17.05c-.02-.04-.05-.05-.05-.08l-.08.15-.05-.08c-.08.05-.24.04-.25.12.03-.04.15.04.14.1.02.07.03.15-.01.17-.13-.11-.25,0-.28-.19-.04.15.01.14-.01.3l.03-.09c.09.09.19.3.3.31-.01.13.18.26.11.37-.09-.03-.17-.21-.14-.28-.03.02-.11-.02-.07.08-.09-.06-.08-.19-.11-.22-.05.04.05.05.03.12.02.18-.2-.12-.21.02.01-.02.07-.02.09.05-.1.09.03.15,0,.27-.17-.1-.29-.27-.39-.24l.04-.03c-.09-.05-.15-.05-.18-.02-.03.25.06.57.03.82l.02-.08c.06.03.02.1.07.15l-.09-.03c.09.11.16.03.24.14-.02,0-.03,0-.03.01h.06c-.09.03.03.26-.18.15.11-.14-.26-.31-.19-.48-.03.1-.11-.1-.16-.13-.06.01.06.09-.01.1-.07-.07-.05-.22-.14-.24.1.12.05.13.1.22-.06,0-.07-.07-.12-.1-.01.02.03.08,0,.08l-.06-.08c-.18-.02.08.13-.04.19.09.09.09.04.11-.01.22.18.1.33.32.54-.05.12-.06-.11-.19-.09-.17-.09-.09-.2-.17-.31h-.16c-.15-.21-.05-.2-.19-.37-.07.05-.02.09-.01.21.22.04.07.15.29.26-.09,0-.11-.05-.17.01,0-.08-.14-.14-.09-.2-.07.1-.01.11-.08.21.1.15.25.07.23.26-.02.02-.06-.03-.05-.04-.12.02.17.14.19.24-.02.05-.07.01-.09-.03.02.11.13.17.13.23h.03s.24.18.18.26c-.05.05-.1-.03-.15-.07,0,.08-.06.07-.13.06.03.02.05.05.04.06-.02.1-.14-.06-.18-.06-.15.03.24.21.15.32l.15-.08c.06.06.15.15.17.13-.09-.09-.13-.21-.08-.23.12.09.02.22.2.26-.04,0-.04.07-.08.09-.09-.14-.11.07-.19-.1-.09.16-.19.1-.21.3-.06-.07-.18-.32-.06-.34l.07.05c0-.15-.13,0-.23-.12.09.26-.29.14-.33.32.08.03.09.09.15.15.03-.06,0-.08.1-.04.08.08.02.08.07.15.08.09.03-.04.1,0,0,.09.02.1.08.19-.1-.04-.13-.08-.23-.13-.12.1.06.23-.05.3.06-.04-.12-.06-.04-.09l-.04.02c-.07-.2.06-.33-.17-.51-.04.08.05.24-.02.33l-.04-.04c-.06.05.06.05.08.09.02.13-.29-.1-.17.08l.09-.04c.05.13.03,0,.17.14.04.18-.17.28-.16.49.11.03.12.02.17-.02.18.19.14.18.33.31l.06-.05.19.16s-.03.02-.06.02c.11.11-.11.06,0,.15l.02-.06c.12.06.06.1.06.16.15.07.08-.11.13-.18-.07-.05-.16-.24-.22-.18-.08-.06-.08-.14-.06-.17.03.05.25.12.25.23-.04-.13.02-.03.03-.13.04.05.09-.12.25.03-.05-.08-.24-.2-.18-.28-.13-.08-.22,0-.28-.17l.04.1c-.1,0-.1-.11-.21-.08.02-.01,0-.11.09-.05-.25-.18-.03-.2-.19-.36.08.05.11.03.12-.02.06.06.14.09.16.16-.04,0-.03.05-.11.03.24.19.16-.03.26-.05-.03,0-.05-.02-.07-.07.07,0,.18-.05.27.07l.14-.21c.05.05,0,.05,0,.07l.1-.1c.09.04.04.1.1.18l.06-.08.06.08c-.03-.06.03-.17.16-.08.04-.11-.19-.33.02-.34.11.11-.02.1.03.2.06.02.04-.13.16-.03,0-.14-.2-.33-.27-.47.05-.07.1.09.14.11.02-.01-.15-.24.02-.11-.05-.11-.13-.22-.21-.21.04-.03.03-.13-.01-.19.14.19.1.03.24.15.08-.02.23-.1.11-.32l.16.19.04-.08c.15.07.06.17.04.21.1-.06.14-.12.21-.2-.06-.02-.08-.07-.14-.11-.05-.1.04-.08.05-.13.05.04.08.08.08.11l.03-.07c.1.12.13.09.15.22v-.08c.09-.02.1.1.12.14l.1-.06c-.03-.09-.11-.08-.08-.17.17.03.23-.1.35-.15l-.16-.05c.08-.02-.1-.19-.15-.29.07-.03.13-.1.21-.09.03.13.17.25.29.29.11-.07-.09-.26-.09-.37.16.27.14.02.24.15.12-.12.18-.32.32-.42-.03-.03-.1-.04-.11-.09.02-.08.12,0,.17.04.05-.07.02-.18-.01-.27,0,.05-.04.01-.09-.05.05-.08.16.1.13-.06.12.12-.02.12.09.24.06-.04.06-.12.05-.22.08.07-.02.05.06.09.04-.12.09-.3.12-.4l.1.09s.05-.09.03-.15c.06.02.06.07.05.1.07-.04.07-.18.1-.21.04.07-.03.04,0,.1.09-.03.02-.32.18-.21,0,.02,0,.03,0,.04.11-.08.15-.23.27-.33.21.05-.09-.2.03-.26.21.3.16-.09.25-.07l-.05-.03c-.03-.16.12-.1.22-.05.09-.04.22-.13.22-.31l.03.08c.02-.13.12-.06.14-.19.01.02.01.08.05.08.4-.12.63-.56.95-.67.68-.23.92-.22,1.41-.26,0,0,.22-.31.53-.63.3-.33.73-.68.89-.96Z"/>
    <path class="cls-1" d="M27.81,56.42s0,0,.01,0c0,0-.01,0-.01,0Z"/>
    <path class="cls-1" d="M29.29,55.2s-.01.01-.02.02c0,0,.02,0,.02-.02Z"/>
    <path class="cls-1" d="M30.23,53.75l-.02.03s.02-.02.02-.03Z"/>
    <path class="cls-1" d="M31.91,51.7c-.07-.08-.11-.28-.21-.33-.19.11.14.4-.05.49l.16.04c-.11-.16-.1-.29-.03-.34l.09.1s.01.08.02.11c.04,0-.03-.09.03-.08Z"/>
    <path class="cls-1" d="M31.88,51.78h0s0,0,0,0c0,0,0,0,0,0Z"/>
  </g>
</svg>